<svg width="109" height="25" viewBox="0 0 109 25" fill="none" xmlns="http://www.w3.org/2000/svg">
<path fill-rule="evenodd" clip-rule="evenodd" d="M94.2589 15.8722C94.2589 15.299 94.5757 14.6192 94.9442 14.36C96.4193 13.3229 99.8534 13.9886 99.8534 15.8722C99.8534 17.5918 96.5389 18.4566 95.0257 17.411C94.6206 17.1307 94.2589 16.5323 94.2589 15.8722ZM92.86 9.66073C92.86 10.4063 93.4283 10.9908 94.1502 10.9908C94.4697 10.9908 97.012 9.0777 99.2335 10.5198C99.9214 10.9655 99.8521 11.2486 99.8521 12.3222C97.8984 10.9739 94.7416 11.1687 93.1523 12.6249C91.3944 14.2366 91.544 17.7348 93.1781 19.09C95.1073 20.692 97.9338 20.7074 99.9595 19.3087C100.093 19.823 100.613 20.2295 101.198 20.137C101.736 20.0515 102.219 19.5539 102.219 18.9765V11.2122C102.219 10.6292 101.919 9.99709 101.683 9.65792C99.2675 6.16678 92.86 7.64817 92.86 9.66073Z" fill="#101010"/>
<path fill-rule="evenodd" clip-rule="evenodd" d="M70.2672 13.9851C70.2672 9.92913 74.7523 8.32301 76.4748 12.2444C78.2028 16.177 73.235 19.9723 70.8898 16.1168C70.5798 15.608 70.2685 14.7741 70.2685 13.9837L70.2672 13.9851ZM76.8296 8.88361C76.5265 8.79952 76.4 8.63975 76.1703 8.45475C74.7835 7.34336 72.7918 7.35877 71.2705 8.14221C68.1871 9.72871 66.7731 14.519 69.4501 18.0438C70.8749 19.9176 73.4566 20.7151 75.6142 19.6079C76.1716 19.322 76.3796 19.0655 76.8296 18.7544C76.8677 20.5091 78.9818 20.1755 78.9818 18.8651V5.77788C78.9818 4.42122 76.8106 3.82699 76.8256 6.10583C76.831 7.03082 76.8296 7.95721 76.8296 8.88361Z" fill="#101010"/>
<path fill-rule="evenodd" clip-rule="evenodd" d="M87.0506 12.3221H83.0699V7.10855H87.0506C89.9369 7.10855 90.0525 12.3221 87.0506 12.3221ZM80.7029 6.11068V18.5322C80.7029 20.9218 83.0699 20.371 83.0699 19.0872V14.8729C85.8923 14.8729 88.4251 15.2933 90.2007 13.463C93.1672 10.4035 91.5303 4.55921 86.6196 4.55921H82.2093C81.2671 4.55921 80.7029 5.14224 80.7029 6.11208V6.11068Z" fill="#101010"/>
<path fill-rule="evenodd" clip-rule="evenodd" d="M62.3057 10.3264C64.3967 10.3264 64.7678 11.4645 65.4258 12.8772H59.7239C59.815 11.749 61.0454 10.3264 62.3071 10.3264H62.3057ZM57.4644 13.4322C57.4644 15.3088 57.5446 16.3375 58.6023 17.9156C60.624 20.9344 64.4007 20.6205 66.0893 18.4411C66.7092 17.6423 67.268 16.9597 66.6358 16.0684C65.6814 14.7229 64.553 16.8392 64.4905 16.9037C62.6021 18.8546 59.8816 17.1433 59.7253 15.2079C60.8333 15.2079 66.6345 15.4125 67.1769 15.0159C67.5508 14.7426 67.7194 14.3137 67.6473 13.7055C67.4488 12.0321 67.0709 10.7048 65.9425 9.46451C63.8501 7.16745 60.2147 7.44495 58.4106 10.4147C58.0313 11.0398 57.4658 12.4707 57.4658 13.4336L57.4644 13.4322Z" fill="#101010"/>
<path fill-rule="evenodd" clip-rule="evenodd" d="M38.0977 11.99C38.0977 14.3992 38.6796 16.3164 40.1139 17.7866C42.5257 20.2588 46.0429 20.8797 48.8136 19.1545C52.1553 17.0732 50.0929 15.8721 49.8251 15.8721C48.4438 15.8721 49.2351 16.0403 47.6294 17.048C43.026 19.9337 37.9876 13.655 41.691 8.70906C42.9499 7.02866 45.5317 6.40499 47.6294 7.71119C48.7307 8.39793 48.8993 8.99777 49.5015 8.99777C50.4043 8.99777 52.0615 7.60748 48.5961 5.49541C45.8648 3.83043 42.5257 4.48913 40.2757 6.80722C39.5198 7.58646 39.3213 7.92282 38.8128 8.95993C38.4009 9.80223 38.0964 10.7791 38.0964 11.9928L38.0977 11.99Z" fill="#101010"/>
<path fill-rule="evenodd" clip-rule="evenodd" d="M102.974 6.1121V18.6443C102.974 20.6709 105.34 20.4284 105.34 19.0886V5.66923C105.34 4.27613 102.974 4.03507 102.974 6.1135V6.1121Z" fill="#101010"/>
<path fill-rule="evenodd" clip-rule="evenodd" d="M53.8059 9.32845C53.5271 8.25069 51.6537 8.63891 51.6537 9.77272V19.0885C51.6537 20.2167 53.4388 20.5405 53.9037 19.4123C54.2695 18.5223 53.7392 13.0957 54.1553 12.1301C54.9968 10.1806 56.6623 11.2373 57.5011 10.8112C58.3426 10.3852 58.7179 8.55202 56.064 8.55202C54.9547 8.55202 54.4639 8.87296 53.8045 9.32845H53.8059Z" fill="#101010"/>
<path fill-rule="evenodd" clip-rule="evenodd" d="M106.094 18.9778C106.094 20.7255 108.999 21.2034 108.999 18.7564C108.999 17.0157 106.094 16.9596 106.094 18.9778Z" fill="#101010"/>
<path fill-rule="evenodd" clip-rule="evenodd" d="M0 12.4383C0 15.666 1.32147 19.0492 3.44235 21.2173C7.59302 25.4611 13.6389 26.2151 18.6406 23.0687C19.0852 22.7898 19.8058 22.2348 20.1552 21.8789C23.1461 18.8236 22.635 18.0303 22.635 13.6492V8.36557C22.635 6.67816 23.1625 5.66767 23.8993 4.71605C24.836 3.50796 26.269 3.0833 27.8678 3.0833C31.752 3.0833 34.1978 8.36697 31.1008 11.6997C30.0104 12.8728 28.1261 13.5133 26.4172 13.0522C25.8639 12.9022 25.8625 12.7691 25.1977 12.7691C23.8463 12.7691 23.0686 15.0339 24.8891 15.7277C27.7359 16.8124 30.5053 16.0542 32.7635 14.1832C37.8414 9.97729 35.3181 0 27.547 0C26.2377 0 24.7477 0.454087 23.8816 0.954423C21.9185 2.08964 20.4135 3.96765 19.9227 6.33899C19.6236 7.78254 19.7514 13.7137 19.7527 15.6296C19.7541 17.928 19.2905 19.066 17.4483 20.298C13.8156 22.7268 8.89274 22.5782 5.84601 19.3996C5.11458 18.6372 4.38315 17.7668 3.91275 16.7704C2.4227 13.6114 2.70956 9.88339 4.6537 6.9991C4.86171 6.68937 4.93784 6.65994 5.14041 6.40066C5.34706 6.13718 5.38241 6.0629 5.63121 5.80502C6.83032 4.56049 9.18232 3.0833 11.5316 3.0833C12.8014 3.0833 13.299 3.02444 14.5675 3.36641C15.5178 3.62288 15.3927 3.85413 16.5497 3.85413C17.5272 3.85413 17.7243 2.85766 17.7243 2.09384C17.7243 0.59704 13.8822 0.002803 12.1719 0.002803C10.1204 0.002803 8.68201 0.49473 7.24362 1.08616C6.52306 1.38328 5.92623 1.75889 5.31579 2.18074C4.99494 2.40217 4.76382 2.60119 4.4688 2.84925C4.29886 2.99221 4.24584 3.07209 4.08269 3.22205C3.12286 4.1036 2.30578 5.0356 1.67223 6.23949C1.45063 6.66134 1.30516 6.83372 1.11346 7.31444C0.503029 8.84208 0.00135954 10.3291 0.00135954 12.4411L0 12.4383Z" fill="#101010"/>
</svg>
